<?xml version="1.0" encoding="UTF-8"?>
<svg xmlns="http://www.w3.org/2000/svg" viewBox="0 0 1280 640" width="1280" height="640">
  <defs>
    <linearGradient id="bg" x1="0" y1="0" x2="1" y2="1">
      <stop offset="0" stop-color="#0f172a" />
      <stop offset="1" stop-color="#1e293b" />
    </linearGradient>
    <pattern id="grid" width="32" height="32" patternUnits="userSpaceOnUse">
      <path d="M 32 0 L 0 0 0 32" fill="none" stroke="#1e293b" stroke-width="0.5" />
    </pattern>
  </defs>

  <!-- Background -->
  <rect width="1280" height="640" fill="url(#bg)" />
  <rect width="1280" height="640" fill="url(#grid)" />

  <!-- Decorative gradient blob -->
  <circle cx="1100" cy="100" r="180" fill="#3b82f6" opacity="0.08" />
  <circle cx="200" cy="540" r="160" fill="#8b5cf6" opacity="0.08" />

  <!-- Brand -->
  <g transform="translate(80, 120)">
    <rect x="-10" y="-50" width="60" height="60" rx="14" fill="#1e293b" stroke="#3b82f6" stroke-width="1.5" />
    <text x="20" y="-12" text-anchor="middle" font-family="-apple-system, sans-serif" font-size="36" fill="#3b82f6">✓</text>
    <text x="70" y="0" font-family="-apple-system, BlinkMacSystemFont, sans-serif" font-size="48" font-weight="bold" fill="#f1f5f9">caldav-tasks-web</text>
  </g>

  <!-- Tagline -->
  <text x="80" y="240" font-family="-apple-system, sans-serif" font-size="26" font-weight="600" fill="#cbd5e1">
    Self-hosted CalDAV tasks. Your data, your server.
  </text>
  <text x="80" y="280" font-family="-apple-system, sans-serif" font-size="18" fill="#94a3b8">
    Radicale, Stalwart, Nextcloud, Baikal — anything RFC 4791.
  </text>

  <!-- Pills -->
  <g transform="translate(80, 380)">
    <rect x="0" y="0" width="92" height="32" rx="16" fill="#1e3a8a" />
    <text x="46" y="22" text-anchor="middle" font-family="-apple-system, sans-serif" font-size="14" font-weight="500" fill="#93c5fd">CalDAV</text>

    <rect x="104" y="0" width="68" height="32" rx="16" fill="#831843" />
    <text x="138" y="22" text-anchor="middle" font-family="-apple-system, sans-serif" font-size="14" font-weight="500" fill="#fbcfe8">VTODO</text>

    <rect x="184" y="0" width="56" height="32" rx="16" fill="#0e7490" />
    <text x="212" y="22" text-anchor="middle" font-family="-apple-system, sans-serif" font-size="14" font-weight="500" fill="#a5f3fc">PWA</text>

    <rect x="252" y="0" width="92" height="32" rx="16" fill="#365314" />
    <text x="298" y="22" text-anchor="middle" font-family="-apple-system, sans-serif" font-size="14" font-weight="500" fill="#bef264">Self-hosted</text>

    <rect x="356" y="0" width="62" height="32" rx="16" fill="#7c2d12" />
    <text x="387" y="22" text-anchor="middle" font-family="-apple-system, sans-serif" font-size="14" font-weight="500" fill="#fed7aa">Deno</text>

    <rect x="430" y="0" width="60" height="32" rx="16" fill="#1e40af" />
    <text x="460" y="22" text-anchor="middle" font-family="-apple-system, sans-serif" font-size="14" font-weight="500" fill="#bfdbfe">MIT</text>
  </g>

  <!-- Mini browser mockup on right -->
  <g transform="translate(720, 100)">
    <rect x="0" y="0" width="480" height="300" rx="12" fill="#0f172a" stroke="#334155" stroke-width="1.5" />
    <rect x="0" y="0" width="480" height="32" fill="#1e293b" />
    <circle cx="16" cy="16" r="4" fill="#475569" />
    <circle cx="32" cy="16" r="4" fill="#475569" />
    <circle cx="48" cy="16" r="4" fill="#475569" />
    <text x="240" y="20" text-anchor="middle" font-family="-apple-system, sans-serif" font-size="11" fill="#64748b">todos.antonshubin.com</text>
    <!-- sidebar -->
    <rect x="0" y="32" width="120" height="268" fill="#1e293b" />
    <text x="14" y="58" font-family="-apple-system, sans-serif" font-size="9" fill="#64748b">FILTERS</text>
    <text x="14" y="78" font-family="-apple-system, sans-serif" font-size="10" fill="#cbd5e1">All statuses</text>
    <text x="14" y="96" font-family="-apple-system, sans-serif" font-size="10" fill="#cbd5e1">All priorities</text>
    <text x="14" y="124" font-family="-apple-system, sans-serif" font-size="9" fill="#64748b">COLLECTIONS</text>
    <circle cx="20" cy="146" r="3" fill="#a855f7" />
    <text x="32" y="150" font-family="-apple-system, sans-serif" font-size="10" fill="#e2e8f0">Work</text>
    <circle cx="20" cy="164" r="3" fill="#ec4899" />
    <text x="32" y="168" font-family="-apple-system, sans-serif" font-size="10" fill="#cbd5e1">Personal</text>
    <circle cx="20" cy="182" r="3" fill="#3b82f6" />
    <text x="32" y="186" font-family="-apple-system, sans-serif" font-size="10" fill="#cbd5e1">Side Projects</text>
    <circle cx="20" cy="200" r="3" fill="#10b981" />
    <text x="32" y="204" font-family="-apple-system, sans-serif" font-size="10" fill="#cbd5e1">NeatSoft</text>
    <circle cx="20" cy="218" r="3" fill="#f59e0b" />
    <text x="32" y="222" font-family="-apple-system, sans-serif" font-size="10" fill="#cbd5e1">Routines</text>
    <!-- main -->
    <text x="138" y="64" font-family="-apple-system, sans-serif" font-size="14" font-weight="600" fill="#f1f5f9">Work</text>
    <text x="166" y="64" font-family="-apple-system, sans-serif" font-size="10" fill="#94a3b8">(7)</text>
    <!-- todo items -->
    <rect x="138" y="80" width="328" height="44" rx="6" fill="#1e293b" />
    <circle cx="152" cy="102" r="6" fill="none" stroke="#cbd5e1" stroke-width="1.5" />
    <rect x="162" y="89" width="22" height="14" rx="3" fill="#dc2626" />
    <text x="167" y="99" font-family="-apple-system, sans-serif" font-size="9" font-weight="bold" fill="#f1f5f9">P9</text>
    <text x="190" y="100" font-family="-apple-system, sans-serif" font-size="11" font-weight="500" fill="#f1f5f9">Reply to Sarah's contract redline</text>
    <text x="190" y="115" font-family="-apple-system, sans-serif" font-size="9" fill="#94a3b8">Section 4 — liability cap.</text>

    <rect x="138" y="132" width="328" height="44" rx="6" fill="#1e293b" />
    <circle cx="152" cy="154" r="6" fill="none" stroke="#cbd5e1" stroke-width="1.5" />
    <rect x="162" y="141" width="22" height="14" rx="3" fill="#dc2626" />
    <text x="167" y="151" font-family="-apple-system, sans-serif" font-size="9" font-weight="bold" fill="#f1f5f9">P8</text>
    <text x="190" y="152" font-family="-apple-system, sans-serif" font-size="11" font-weight="500" fill="#f1f5f9">Send architecture diagram to prospect</text>
    <text x="190" y="167" font-family="-apple-system, sans-serif" font-size="9" fill="#94a3b8">CTO-as-a-Service deck.</text>

    <rect x="138" y="184" width="328" height="44" rx="6" fill="#1e293b" />
    <circle cx="152" cy="206" r="6" fill="none" stroke="#cbd5e1" stroke-width="1.5" />
    <rect x="162" y="193" width="22" height="14" rx="3" fill="#16a34a" />
    <text x="167" y="203" font-family="-apple-system, sans-serif" font-size="9" font-weight="bold" fill="#f1f5f9">P5</text>
    <text x="190" y="204" font-family="-apple-system, sans-serif" font-size="11" font-weight="500" fill="#f1f5f9">Review Peter's PR for caldav-tasks-web</text>
    <text x="190" y="219" font-family="-apple-system, sans-serif" font-size="9" fill="#94a3b8">Adapter layer refactor.</text>

    <rect x="138" y="236" width="328" height="44" rx="6" fill="#1e293b" />
    <circle cx="152" cy="258" r="6" fill="none" stroke="#cbd5e1" stroke-width="1.5" />
    <rect x="162" y="245" width="22" height="14" rx="3" fill="#16a34a" />
    <text x="167" y="255" font-family="-apple-system, sans-serif" font-size="9" font-weight="bold" fill="#f1f5f9">P5</text>
    <text x="190" y="256" font-family="-apple-system, sans-serif" font-size="11" font-weight="500" fill="#f1f5f9">Q3 OKR doc draft</text>
    <text x="190" y="271" font-family="-apple-system, sans-serif" font-size="9" fill="#94a3b8">Three outcomes, ten outputs.</text>
  </g>

  <!-- Footer / repo link -->
  <g transform="translate(80, 470)">
    <rect x="0" y="0" width="200" height="36" rx="8" fill="#1e293b" stroke="#334155" stroke-width="1" />
    <text x="100" y="23" text-anchor="middle" font-family="-apple-system, monospace" font-size="14" fill="#cbd5e1">github.com/spy4x/caldav-tasks-web</text>
  </g>

  <!-- right side footer -->
  <g transform="translate(900, 470)">
    <text x="0" y="0" font-family="-apple-system, sans-serif" font-size="14" fill="#94a3b8">MIT License · Deno + Hono + Preact · SQLite</text>
  </g>
</svg>